<svg width="300" height="300" viewBox="0 0 300 300" fill="none" xmlns="http://www.w3.org/2000/svg">
<circle cx="150" cy="150" r="150" fill="white"/>
<path d="M105.863 91.2788C115.661 91.2788 123.096 94.6968 128.166 101.533C133.236 108.369 135.771 117.967 135.771 130.329C135.771 142.691 133.378 152.347 128.593 159.296C123.808 166.246 116.231 169.721 105.863 169.721C96.236 169.721 88.9159 166.246 83.9028 159.296C78.8898 152.347 76.3833 142.691 76.3833 130.329C76.3833 117.967 78.7189 108.369 83.3901 101.533C88.1183 94.6968 95.6094 91.2788 105.863 91.2788ZM106.034 109.138C103.243 109.138 101.192 110.904 99.8818 114.436C98.5716 117.967 97.9165 123.322 97.9165 130.5C97.9165 137.678 98.5716 143.061 99.8818 146.65C101.192 150.239 103.243 152.033 106.034 152.033C108.826 152.033 110.876 150.267 112.187 146.735C113.554 143.146 114.237 137.735 114.237 130.5C114.237 123.322 113.554 117.967 112.187 114.436C110.876 110.904 108.826 109.138 106.034 109.138ZM194.56 93.0732L125.26 218H104.752L174.052 93.0732H194.56ZM193.363 141.181C203.161 141.181 210.596 144.599 215.666 151.435C220.736 158.271 223.271 167.87 223.271 180.231C223.271 192.536 220.878 202.163 216.093 209.113C211.308 216.063 203.731 219.538 193.363 219.538C183.736 219.538 176.416 216.063 171.403 209.113C166.39 202.163 163.883 192.536 163.883 180.231C163.883 167.87 166.219 158.271 170.89 151.435C175.618 144.599 183.109 141.181 193.363 141.181ZM193.534 159.04C190.743 159.04 188.692 160.806 187.382 164.338C186.072 167.87 185.417 173.225 185.417 180.402C185.417 187.58 186.072 192.963 187.382 196.552C188.692 200.141 190.743 201.936 193.534 201.936C196.326 201.936 198.376 200.17 199.687 196.638C201.054 193.049 201.737 187.637 201.737 180.402C201.737 173.225 201.054 167.87 199.687 164.338C198.376 160.806 196.326 159.04 193.534 159.04Z" fill="#6341E1"/>
</svg>
