<svg width="100%" height="100%" viewBox="0 0 314 54" fill="none" xmlns="http://www.w3.org/2000/svg">
	<path d="M24.3008 9.93359C22.2148 9.93359 20.3633 10.3438 18.7461 11.1641C17.1523 11.9609 15.8047 13.1211 14.7031 14.6445C13.625 16.168 12.8047 18.0078 12.2422 20.1641C11.6797 22.3203 11.3984 24.7461 11.3984 27.4414C11.3984 31.0742 11.8438 34.1797 12.7344 36.7578C13.6484 39.3125 15.0547 41.2695 16.9531 42.6289C18.8516 43.9648 21.3008 44.6328 24.3008 44.6328C26.3867 44.6328 28.4727 44.3984 30.5586 43.9297C32.668 43.4609 34.9531 42.793 37.4141 41.9258V51.0664C35.1406 52.0039 32.9023 52.6719 30.6992 53.0703C28.4961 53.4922 26.0234 53.7031 23.2812 53.7031C17.9844 53.7031 13.625 52.6133 10.2031 50.4336C6.80469 48.2305 4.28516 45.1602 2.64453 41.2227C1.00391 37.2617 0.183594 32.6445 0.183594 27.3711C0.183594 23.4805 0.710938 19.918 1.76562 16.6836C2.82031 13.4492 4.36719 10.6484 6.40625 8.28125C8.44531 5.91406 10.9648 4.08594 13.9648 2.79688C16.9648 1.50781 20.4102 0.863281 24.3008 0.863281C26.8555 0.863281 29.4102 1.19141 31.9648 1.84766C34.543 2.48047 37.0039 3.35938 39.3477 4.48438L35.832 13.3438C33.9102 12.4297 31.9766 11.6328 30.0312 10.9531C28.0859 10.2734 26.1758 9.93359 24.3008 9.93359ZM83.2578 33.2773C83.2578 36.5586 82.8125 39.4648 81.9219 41.9961C81.0547 44.5273 79.7773 46.6719 78.0898 48.4297C76.4258 50.1641 74.4102 51.4766 72.043 52.3672C69.6992 53.2578 67.0508 53.7031 64.0977 53.7031C61.332 53.7031 58.7891 53.2578 56.4688 52.3672C54.1719 51.4766 52.168 50.1641 50.457 48.4297C48.7695 46.6719 47.457 44.5273 46.5195 41.9961C45.6055 39.4648 45.1484 36.5586 45.1484 33.2773C45.1484 28.918 45.9219 25.2266 47.4688 22.2031C49.0156 19.1797 51.2188 16.8828 54.0781 15.3125C56.9375 13.7422 60.3477 12.957 64.3086 12.957C67.9883 12.957 71.2461 13.7422 74.082 15.3125C76.9414 16.8828 79.1797 19.1797 80.7969 22.2031C82.4375 25.2266 83.2578 28.918 83.2578 33.2773ZM56.082 33.2773C56.082 35.8555 56.3633 38.0234 56.9258 39.7812C57.4883 41.5391 58.3672 42.8633 59.5625 43.7539C60.7578 44.6445 62.3164 45.0898 64.2383 45.0898C66.1367 45.0898 67.6719 44.6445 68.8438 43.7539C70.0391 42.8633 70.9062 41.5391 71.4453 39.7812C72.0078 38.0234 72.2891 35.8555 72.2891 33.2773C72.2891 30.6758 72.0078 28.5195 71.4453 26.8086C70.9062 25.0742 70.0391 23.7734 68.8438 22.9062C67.6484 22.0391 66.0898 21.6055 64.168 21.6055C61.332 21.6055 59.2695 22.5781 57.9805 24.5234C56.7148 26.4688 56.082 29.3867 56.082 33.2773ZM119.539 41.3281C119.539 44 118.906 46.2617 117.641 48.1133C116.398 49.9414 114.535 51.3359 112.051 52.2969C109.566 53.2344 106.473 53.7031 102.77 53.7031C100.027 53.7031 97.6719 53.5273 95.7031 53.1758C93.7578 52.8242 91.7891 52.2383 89.7969 51.418V42.5586C91.9297 43.5195 94.2148 44.3164 96.6523 44.9492C99.1133 45.5586 101.27 45.8633 103.121 45.8633C105.207 45.8633 106.695 45.5586 107.586 44.9492C108.5 44.3164 108.957 43.4961 108.957 42.4883C108.957 41.832 108.77 41.2461 108.395 40.7305C108.043 40.1914 107.27 39.5938 106.074 38.9375C104.879 38.2578 103.004 37.3789 100.449 36.3008C97.9883 35.2695 95.9609 34.2266 94.3672 33.1719C92.7969 32.1172 91.625 30.875 90.8516 29.4453C90.1016 27.9922 89.7266 26.1523 89.7266 23.9258C89.7266 20.293 91.1328 17.5625 93.9453 15.7344C96.7812 13.8828 100.566 12.957 105.301 12.957C107.738 12.957 110.059 13.2031 112.262 13.6953C114.488 14.1875 116.773 14.9727 119.117 16.0508L115.883 23.7852C113.938 22.9414 112.098 22.25 110.363 21.7109C108.652 21.1719 106.906 20.9023 105.125 20.9023C103.555 20.9023 102.371 21.1133 101.574 21.5352C100.777 21.957 100.379 22.6016 100.379 23.4688C100.379 24.1016 100.578 24.6641 100.977 25.1562C101.398 25.6484 102.195 26.1992 103.367 26.8086C104.562 27.3945 106.309 28.1562 108.605 29.0938C110.832 30.0078 112.766 30.9688 114.406 31.9766C116.047 32.9609 117.312 34.1914 118.203 35.668C119.094 37.1211 119.539 39.0078 119.539 41.3281ZM144.465 45.1602C145.637 45.1602 146.773 45.043 147.875 44.8086C149 44.5742 150.113 44.2812 151.215 43.9297V51.9102C150.066 52.4258 148.637 52.8477 146.926 53.1758C145.238 53.5273 143.387 53.7031 141.371 53.7031C139.027 53.7031 136.918 53.3281 135.043 52.5781C133.191 51.8047 131.727 50.4805 130.648 48.6055C129.594 46.707 129.066 44.0703 129.066 40.6953V21.7461H123.934V17.2109L129.84 13.625L132.934 5.32812H139.789V13.6953H150.793V21.7461H139.789V40.6953C139.789 42.1953 140.211 43.3203 141.055 44.0703C141.922 44.7969 143.059 45.1602 144.465 45.1602ZM200.785 53H193.895L165.875 9.82812H165.594C165.664 10.9766 165.746 12.2891 165.84 13.7656C165.934 15.2188 166.004 16.7773 166.051 18.4414C166.121 20.082 166.156 21.7578 166.156 23.4688V53H160.602V1.60156H167.457L195.371 44.6328H195.617C195.57 43.8125 195.512 42.6523 195.441 41.1523C195.371 39.6289 195.301 38 195.23 36.2656C195.184 34.5078 195.16 32.8789 195.16 31.3789V1.60156H200.785V53ZM247.156 33.6641C247.156 36.8281 246.746 39.6523 245.926 42.1367C245.105 44.6211 243.922 46.7188 242.375 48.4297C240.828 50.1406 238.953 51.4531 236.75 52.3672C234.57 53.2578 232.098 53.7031 229.332 53.7031C226.754 53.7031 224.387 53.2578 222.23 52.3672C220.098 51.4531 218.246 50.1406 216.676 48.4297C215.129 46.7188 213.922 44.6211 213.055 42.1367C212.211 39.6523 211.789 36.8281 211.789 33.6641C211.789 29.4453 212.504 25.8594 213.934 22.9062C215.363 19.9297 217.402 17.668 220.051 16.1211C222.723 14.5508 225.898 13.7656 229.578 13.7656C233.094 13.7656 236.164 14.5508 238.789 16.1211C241.438 17.6914 243.488 19.9648 244.941 22.9414C246.418 25.8945 247.156 29.4688 247.156 33.6641ZM217.836 33.6641C217.836 36.7578 218.246 39.4414 219.066 41.7148C219.887 43.9883 221.152 45.7461 222.863 46.9883C224.574 48.2305 226.777 48.8516 229.473 48.8516C232.145 48.8516 234.336 48.2305 236.047 46.9883C237.781 45.7461 239.059 43.9883 239.879 41.7148C240.699 39.4414 241.109 36.7578 241.109 33.6641C241.109 30.5938 240.699 27.9453 239.879 25.7188C239.059 23.4688 237.793 21.7344 236.082 20.5156C234.371 19.2969 232.156 18.6875 229.438 18.6875C225.43 18.6875 222.488 20.0117 220.613 22.6602C218.762 25.3086 217.836 28.9766 217.836 33.6641ZM269.691 48.9219C270.652 48.9219 271.637 48.8398 272.645 48.6758C273.652 48.5117 274.473 48.3125 275.105 48.0781V52.6133C274.426 52.918 273.477 53.1758 272.258 53.3867C271.062 53.5977 269.891 53.7031 268.742 53.7031C266.703 53.7031 264.852 53.3516 263.188 52.6484C261.523 51.9219 260.188 50.7031 259.18 48.9922C258.195 47.2812 257.703 44.9141 257.703 41.8906V19.0391H252.219V16.1914L257.738 13.9062L260.059 5.53906H263.574V14.4688H274.859V19.0391H263.574V41.7148C263.574 44.1289 264.125 45.9336 265.227 47.1289C266.352 48.3242 267.84 48.9219 269.691 48.9219ZM297.746 13.7656C301.027 13.7656 303.84 14.4922 306.184 15.9453C308.527 17.3984 310.32 19.4375 311.562 22.0625C312.805 24.6641 313.426 27.7109 313.426 31.2031V34.8242H286.812C286.883 39.3477 288.008 42.793 290.188 45.1602C292.367 47.5273 295.438 48.7109 299.398 48.7109C301.836 48.7109 303.992 48.4883 305.867 48.043C307.742 47.5977 309.688 46.9414 311.703 46.0742V51.207C309.758 52.0742 307.824 52.707 305.902 53.1055C304.004 53.5039 301.754 53.7031 299.152 53.7031C295.449 53.7031 292.215 52.9531 289.449 51.4531C286.707 49.9297 284.574 47.7031 283.051 44.7734C281.527 41.8438 280.766 38.2578 280.766 34.0156C280.766 29.8672 281.457 26.2812 282.84 23.2578C284.246 20.2109 286.215 17.8672 288.746 16.2266C291.301 14.5859 294.301 13.7656 297.746 13.7656ZM297.676 18.5469C294.559 18.5469 292.074 19.5664 290.223 21.6055C288.371 23.6445 287.27 26.4922 286.918 30.1484H307.309C307.285 27.8516 306.922 25.8359 306.219 24.1016C305.539 22.3438 304.496 20.9844 303.09 20.0234C301.684 19.0391 299.879 18.5469 297.676 18.5469Z" fill="#17113B" />
</svg>